<svg width="94" height="100" viewBox="0 0 94 100" fill="none" xmlns="http://www.w3.org/2000/svg">
<path d="M81.4667 93.75V81.0547L87.7333 74.7559V100H62.5198L68.7375 93.75H81.4667ZM62.6667 43.75V25H31.3333V92.7734C31.3333 92.806 31.2517 93.1641 31.0885 93.8477C30.9253 94.5312 30.7295 95.3125 30.501 96.1914C30.2726 97.0703 30.0604 97.8841 29.8646 98.6328C29.6688 99.3815 29.5545 99.8372 29.5219 100H25.0667V81.25H0V0H42.0552L60.8552 18.75H67.1219L84.5021 36.084C81.8257 36.084 79.3288 36.556 77.0115 37.5L68.9333 29.4434V37.5H77.0115C76.0976 37.8906 75.2979 38.2975 74.6125 38.7207C73.9271 39.1439 73.2906 39.6159 72.7031 40.1367C72.1156 40.6576 71.5281 41.2109 70.9406 41.7969C70.3531 42.3828 69.7167 43.0339 69.0312 43.75H62.6667ZM25.0667 18.75H51.9448L39.4115 6.25H6.26667V75H25.0667V18.75ZM94 53.418C94 54.6875 93.7552 55.9245 93.2656 57.1289C92.776 58.3333 92.0743 59.3913 91.1604 60.3027L56.0573 95.4102L37.6 100L42.2021 81.5918L77.3052 46.5332C78.2191 45.6217 79.2799 44.9382 80.4875 44.4824C81.6951 44.0267 82.9354 43.7826 84.2083 43.75C85.5792 43.75 86.8521 43.9941 88.0271 44.4824C89.2021 44.9707 90.2465 45.6543 91.1604 46.5332C92.0743 47.4121 92.7597 48.4375 93.2167 49.6094C93.6736 50.7812 93.9347 52.0508 94 53.418ZM87.7333 53.418C87.7333 52.4089 87.407 51.5951 86.7542 50.9766C86.1014 50.3581 85.2528 50.0326 84.2083 50C83.7514 50 83.3108 50.0651 82.8865 50.1953C82.4622 50.3255 82.0868 50.5697 81.7604 50.9277L47.8813 84.8145L46.2167 91.4062L52.826 89.7461L86.7052 55.9082C87.3906 55.2246 87.7333 54.3945 87.7333 53.418Z" fill="#00786F"/>
<path d="M25.0667 18.75H51.9448L39.4115 6.25H6.26667V75H25.0667V18.75Z" fill="#00786F"/>
<path d="M62.6667 25V43.75H69.0312C69.7167 43.0339 70.3531 42.3828 70.9406 41.7969C71.5281 41.2109 72.1156 40.6576 72.7031 40.1367C73.2906 39.6159 73.9271 39.1439 74.6125 38.7207C75.2979 38.2975 76.0976 37.8906 77.0115 37.5C79.3288 36.556 81.8257 36.084 84.5021 36.084L67.1219 18.75H60.8552L42.0552 0H0V81.25H25.0667V100H29.5219C29.5545 99.8372 29.6688 99.3815 29.8646 98.6328C30.0604 97.8841 30.2726 97.0703 30.501 96.1914C30.7295 95.3125 30.9253 94.5312 31.0885 93.8477C31.2517 93.1641 31.3333 92.806 31.3333 92.7734V25H62.6667ZM51.9448 18.75H25.0667V75H6.26667V6.25H39.4115L51.9448 18.75Z" fill="#00786F"/>
</svg>
